Simulation
nRows=48
nColumns=15
endheader
time  TH_x TH_y TH_z SC_y  SC_z  SC_x  AC_y  AC_z  AC_x  GH_y  GH_z  GH_yy  EL_x  PS_y
0.0  0.000000  0.000000  0.000000  -33.95198281810694  1.3163529871182615  7.8235837545315094  56.46158939656918  5.889764363570688  -10.313308742844367  47.23132682144301  -3.77260855612013  -15.944891328017698  22.306061300033495  0.000000
0.031  0.000000  0.000000  0.000000  -33.64315372466658  0.8845159404821047  7.177273572885654  56.19250547623385  5.222826106952733  -10.41189454323894  46.525908574341194  -3.805632283432167  -15.766899523367952  22.321147071561107  0.000000
0.062  0.000000  0.000000  0.000000  -33.1026864064648  0.4848520213629629  6.492941024184301  55.83134259269738  4.383011251520733  -10.49726456976898  45.572745927547686  -3.692887954656586  -15.44385101245828  22.31787115824534  0.000000
0.093  0.000000  0.000000  0.000000  -32.63949370804636  0.0642542133633725  5.8899997261323165  55.503755068757854  3.5019511710684537  -10.570688066476485  44.54968715256652  -3.472321156201719  -15.1360676675313  22.3089321585584  0.000000
0.124  0.000000  0.000000  0.000000  -32.22644699690404  -0.3046104845358477  5.374798248046769  55.23793524356288  2.6472063321989623  -10.603725193244173  43.547711436224226  -3.1616348640693546  -14.838289957486628  22.316600162942894  0.000000
0.155  0.000000  0.000000  0.000000  -31.86888426967131  -0.6189401404477205  4.94553195449733  55.01594373471238  1.8760798685054936  -10.600754171882087  42.57811946816352  -2.7490693430817483  -14.562524165173249  22.315998116018662  0.000000
0.186  0.000000  0.000000  0.000000  -31.56003630349355  -0.8792178730126838  4.589921918745656  54.847795487541866  1.2151774276336114  -10.574757795448871  41.63230425535296  -2.216433737846407  -14.322174746658932  22.30351503309319  0.000000
0.217  0.000000  0.000000  0.000000  -31.29922740753057  -1.0896068884959578  4.306167946776997  54.72279917989857  0.6741245189323617  -10.534314691107713  40.714785574675126  -1.5605042103860025  -14.113281466723471  22.276855634247706  0.000000
0.248  0.000000  0.000000  0.000000  -31.07934140363267  -1.2555640138867978  4.08751219584484  54.64162633918369  0.2476674494665012  -10.489906789884555  39.81827282395004  -0.7811865229028607  -13.941380957093552  22.23947016334181  0.000000
0.279  0.000000  0.000000  0.000000  -30.901373815304062  -1.3808583304468975  3.9332446019252703  54.59858223852664  -0.07500500838507385  -10.447529959520075  38.94663934563691  0.11418835017383175  -13.800489893154648  22.19138624023073  0.000000
0.31  0.000000  0.000000  0.000000  -30.75844360737726  -1.4689459035040626  3.8395369077703076  54.589179094222814  -0.30657747656139905  -10.41178481971835  38.0941345624979  1.114673946947451  -13.693421031336088  22.135464195248442  0.000000
0.34099999999999997  0.000000  0.000000  0.000000  -30.652609279969646  -1.522722483237901  3.803185057472747  54.61241324733053  -0.4559281790171974  -10.384312281171594  37.26151657123978  2.211285187327783  -13.616507063195964  22.070973543554132  0.000000
0.372  0.000000  0.000000  0.000000  -30.58243233326855  -1.546056124072948  3.8197720800187693  54.66432305758013  -0.5272790381896774  -10.364244624364716  36.444330954500785  3.3924093488237332  -13.571462205505785  21.999243550241786  0.000000
0.403  0.000000  0.000000  0.000000  -30.549648329728278  -1.542556526421562  3.8886198655428226  54.74971260817949  -0.5291819155840507  -10.350643403677457  35.64774334811219  4.6500487007190054  -13.55149063584245  21.920236912613596  0.000000
0.434  0.000000  0.000000  0.000000  -30.553307090949513  -1.5165758423598417  4.007295796431401  54.869487770223515  -0.4730917523347055  -10.338665367271263  34.872640786187795  5.97390321392646  -13.555063169050923  21.83761794758912  0.000000
0.46499999999999997  0.000000  0.000000  0.000000  -30.59479027505229  -1.4719325247076243  4.169270151695737  55.025703186293114  -0.3663570402827437  -10.325465757503363  34.12199306836631  7.355789618106618  -13.579872981627844  21.75266821464567  0.000000
0.496  0.000000  0.000000  0.000000  -30.673528785526457  -1.4076591530624762  4.364800567806973  55.2113304311904  -0.20633953329958496  -10.307003418858915  33.39851822641506  8.782921634694482  -13.623820672499223  21.666429777396687  0.000000
0.527  0.000000  0.000000  0.000000  -30.788263658382746  -1.3217859443443654  4.5829912919796865  55.42012675405252  0.011568854046964524  -10.280164287686807  32.7026760458251  10.248104331679205  -13.686893017596327  21.577239528573024  0.000000
0.558  0.000000  0.000000  0.000000  -30.933108646108998  -1.2165091897010183  4.8211029151371845  55.64787985676991  0.28695162496007404  -10.247216750373585  32.034013620810015  11.751320020533557  -13.767823790128196  21.482757844490322  0.000000
0.589  0.000000  0.000000  0.000000  -31.099526638630635  -1.0932372263617323  5.078711222728415  55.8891583428187  0.6204016674333515  -10.210078316790447  31.391399320432647  13.295672894449103  -13.865622443198724  21.38402474291125  0.000000
0.62  0.000000  0.000000  0.000000  -31.284355510234906  -0.9523437658089849  5.355393993422772  56.13865581235583  1.0114116613610455  -10.169890583122193  30.77040489575146  14.883975451335251  -13.98195876201898  21.28261378138575  0.000000
0.651  0.000000  0.000000  0.000000  -31.48791379898356  -0.7931333200603262  5.6477783452851815  56.394160864484824  1.461629326966351  -10.127133879984695  30.167164499041814  16.513997145643934  -14.118267174728631  21.177630181341492  0.000000
0.6819999999999999  0.000000  0.000000  0.000000  -31.70432358286638  -0.6138429130646174  5.946173060833959  56.651462621791325  1.9759598997333867  -10.078499105908268  29.580264972507607  18.174078329239983  -14.273616090879992  21.06936773671603  0.000000
0.713  0.000000  0.000000  0.000000  -31.927637028486156  -0.42375887936379364  6.244211837921036  56.8996426141593  2.5525131413463713  -10.02512931327553  29.011759382822877  19.84644603486033  -14.444342537626625  20.955533913577945  0.000000
0.744  0.000000  0.000000  0.000000  -32.15013023239016  -0.23164113301337075  6.5490953837322685  57.132175094097704  3.1728378036331577  -9.974899843423156  28.464334437171075  21.5167041854928  -14.628260761207525  20.836851471439772  0.000000
0.775  0.000000  0.000000  0.000000  -32.3632927123196  -0.03294616437513659  6.866441881671987  57.35046772543449  3.8202864124404505  -9.9299850119601  27.941718258202414  23.17912711841408  -14.822811894777407  20.716464808459058  0.000000
0.806  0.000000  0.000000  0.000000  -32.568551212332366  0.17459772786061453  7.193153758082437  57.55717492605369  4.490441086135737  -9.884837476574305  27.4450525879954  24.83328595463572  -15.026289198473066  20.59797590478237  0.000000
0.837  0.000000  0.000000  0.000000  -32.76779186675135  0.39077732275765203  7.526119842946266  57.75124377372201  5.180770237696582  -9.833141492313269  26.97352009156458  26.475780789551703  -15.238490977828672  20.48097173665313  0.000000
0.868  0.000000  0.000000  0.000000  -32.960156226108275  0.6160980765359308  7.860049467760396  57.93365206818622  5.8897783298888005  -9.770377886479231  26.52638637834084  28.103076354130128  -15.459298451470573  20.365329044383596  0.000000
0.899  0.000000  0.000000  0.000000  -33.146428407612845  0.8506530591679122  8.190963213644348  58.10374788383122  6.615753686655039  -9.690681703154755  26.10338540386676  29.710617921256855  -15.687044154092217  20.25151704997908  0.000000
0.9299999999999999  0.000000  0.000000  0.000000  -33.32764792406481  1.094905704043545  8.515710800143536  58.26506368509843  7.354068285260019  -9.587954691810083  25.703199101717153  31.295237050746746  -15.921950769248197  20.1386633462439  0.000000
0.961  0.000000  0.000000  0.000000  -33.50758302199669  1.3495558701328008  8.832140125937386  58.42125603134237  8.098724302196405  -9.454403286718625  25.324562249272144  32.853452008636026  -16.162789741002005  20.02658344911826  0.000000
0.992  0.000000  0.000000  0.000000  -33.69072262787186  1.6158633797978637  9.138629139921148  58.578655741922866  8.841344237712375  -9.28253200662532  24.96466742407043  34.382253458264316  -16.409988185435815  19.914556982054922  0.000000
1.023  0.000000  0.000000  0.000000  -33.881523633649024  1.894576731003287  9.434561050308456  58.74190704711161  9.57305110006452  -9.066103757810708  24.621494245747208  35.87850409223102  -16.662482589848953  19.80192576199346  0.000000
1.054  0.000000  0.000000  0.000000  -34.081640930877086  2.1852560703818247  9.71936746167002  58.91376358064624  10.28572717462776  -8.803152716162876  24.293748871355923  37.33948169522142  -16.920169907200243  19.688760405903125  0.000000
1.085  0.000000  0.000000  0.000000  -34.289894586053656  2.4858836949777374  9.991986608043312  59.091960416190794  10.974862646090067  -8.496713747120978  23.983114754458757  38.76205659737948  -17.181587554442476  19.576328056490688  0.000000
1.116  0.000000  0.000000  0.000000  -34.50295585594881  2.7926826342293785  10.250082406853062  59.27229360236766  11.639878443408097  -8.15385619210924  23.691580278320462  40.142750104411626  -17.44590028999949  19.46621830774957  0.000000
1.147  0.000000  0.000000  0.000000  -34.71753452229405  3.101643818121248  10.490728013315472  59.448989793408295  12.282565924956378  -7.782399338740613  23.42151393896954  41.4775553982119  -17.71144987820873  19.359699427068488  0.000000
1.178  0.000000  0.000000  0.000000  -34.93032743555805  3.409210231410583  10.710953991052762  59.61774249375046  12.904469119484533  -7.389865303121152  23.17352267480334  42.76278060806614  -17.977572638376863  19.25718550592767  0.000000
1.209  0.000000  0.000000  0.000000  -35.13899195310259  3.7118248996304075  10.909556446917335  59.77470533411002  13.505457643778575  -6.982878642094501  22.947604036346554  43.995344855679875  -18.24314893231173  19.15840431900992  0.000000
1.24  0.000000  0.000000  0.000000  -35.34300581428523  4.008131638333239  11.086162516253292  59.91866269558941  14.083709759408842  -6.5666690605230915  22.742439361517892  45.17216080280752  -18.507936584446327  19.06330049991565  0.000000
1.271  0.000000  0.000000  0.000000  -35.54273622188709  4.295966743097844  11.240374717144155  60.04926383707339  14.638637155862565  -6.145567438797276  22.556905213077513  46.290150028818196  -18.770954454605114  18.971796877548062  0.000000
1.302  0.000000  0.000000  0.000000  -35.73735011424856  4.572239031258567  11.370115817565493  60.166607702799396  15.171751171558542  -5.723762614635098  22.389979237866505  47.34690313824863  -19.03188539578548  18.883674686995278  0.000000
1.333  0.000000  0.000000  0.000000  -35.925507372481185  4.8351357205954315  11.47399257393951  60.27072072111688  15.6840135063884  -5.305024448803515  22.241197872480367  48.33976319280229  -19.28988567572736  18.799103962601805  0.000000
1.3639999999999999  0.000000  0.000000  0.000000  -36.10632301120694  5.082404522166989  11.552038147267329  60.36276029606416  16.17505916932499  -4.893514393851019  22.110355100800874  49.266665623924524  -19.544348691195673  18.718217615223548  0.000000
1.395  0.000000  0.000000  0.000000  -36.27777316926611  5.312196884606511  11.604593390570175  60.442781544041445  16.64403927390688  -4.49375116069089  21.997840494825603  50.12562645540569  -19.79449540789534  18.641782955143608  0.000000
1.426  0.000000  0.000000  0.000000  -36.43805782792032  5.523172194093544  11.632158762567846  60.51093786822484  17.08943912940373  -4.109998840438973  21.904265322896045  50.914849434916135  -20.03975078917056  18.569991837585395  0.000000
1.457  0.000000  0.000000  0.000000  -36.58612130272225  5.713773133416804  11.63625237758369  60.56810663321056  17.508323339307957  -3.7464432636864156  21.828380144542592  51.63275631600474  -20.27965211743782  18.502704327709477  0.000000
